# Blender v2.79 (sub 0) OBJ File: 'Landscape Trial.blend'
# www.blender.org
mtllib Landscape Trial.mtl
o Plane_Plane.001
v 5.690233 0.513302 -4.847431
v -3.690385 0.513302 -4.847431
v 5.690233 0.513302 4.533187
v -3.690385 0.513302 4.533187
v 5.690233 0.513302 3.680403
v 5.690233 0.513302 2.827620
v 5.690233 0.513302 1.974836
v 5.690233 0.513302 1.122053
v 5.690233 0.513302 0.269270
v 5.690233 0.513302 -0.583514
v 5.690233 0.513302 -1.436297
v 5.690233 0.513302 -2.289081
v 5.690233 0.513302 -3.141864
v 5.690233 0.513302 -3.994648
v 4.837450 0.513302 -4.847431
v 3.984666 0.513302 -4.847431
v 3.131882 0.513302 -4.847431
v 2.279099 0.513302 -4.847431
v 1.426315 0.513302 -4.847431
v 0.573532 0.513302 -4.847431
v -0.279252 0.513302 -4.847431
v -1.132035 0.513302 -4.847431
v -1.984818 0.513302 -4.847431
v -2.837602 0.513302 -4.847431
v -3.690385 0.513302 -3.994648
v -3.690385 0.513302 -3.141864
v -3.690385 0.513302 -2.289081
v -3.690385 0.513302 -1.436297
v -3.690385 0.513302 -0.583514
v -3.690385 0.513302 0.269270
v -3.690385 0.513302 1.122053
v -3.690385 0.513302 1.974837
v -3.690385 0.513302 2.827620
v -3.690385 0.513302 3.680403
v -2.837602 0.513302 4.533187
v -1.984818 0.513302 4.533187
v -1.132035 0.513302 4.533187
v -0.279251 0.513302 4.533187
v 0.573532 0.513302 4.533187
v 1.426316 0.513302 4.533187
v 2.279099 0.513302 4.533187
v 3.131882 0.513302 4.533187
v 3.984666 0.513302 4.533187
v 4.837450 0.513302 4.533187
v 4.837450 0.513302 -3.994648
v 4.837450 0.513302 -3.141864
v 4.792717 0.610836 -2.263840
v 4.837083 0.513833 -1.436307
v 4.826322 0.537151 -0.577762
v 4.837432 0.513326 0.269272
v 4.765890 0.657629 1.147517
v 4.837450 0.513302 1.974837
v 4.837450 0.513302 2.827620
v 4.837450 0.513302 3.680403
v 3.984666 0.513302 -3.994648
v 3.881444 0.738368 -3.083621
v 3.561483 2.767735 -1.746129
v 3.703075 1.002060 -1.378929
v 3.547575 1.700973 -0.084747
v 3.655762 1.052878 0.343970
v 3.822590 2.619638 1.386990
v 3.871622 0.695747 1.952815
v 3.913106 0.657629 2.853084
v 3.984666 0.513302 3.680403
v 3.131882 0.513302 -3.994648
v 3.085885 0.575894 -3.099175
v 2.268519 0.767790 -2.460358
v 3.066036 0.644863 -1.409137
v 3.079696 0.625150 -0.556539
v 3.185637 0.622444 0.250415
v 2.883423 0.869192 1.208482
v 2.434525 1.232640 1.283970
v 3.125896 2.816968 2.866445
v 3.060323 0.657629 3.705867
v 2.255025 0.572003 -3.946570
v 1.889999 1.462069 -2.364793
v 2.127489 0.645432 -2.265112
v 3.425015 1.374292 -0.193475
v 2.417619 0.664147 -0.549572
v 3.664022 1.550841 -0.090139
v 2.324800 1.928726 1.210096
v 2.223912 0.573237 1.961101
v 2.207540 0.657629 2.853084
v 2.279099 0.513302 3.680403
v 1.426315 0.513302 -3.994648
v 1.402241 0.572003 -3.093786
v 1.426315 0.513302 -2.289081
v 1.497870 0.729410 -1.296220
v 1.250720 2.335294 0.076232
v 1.534154 0.685601 0.317017
v 1.419518 0.522128 1.128138
v 1.428898 0.516048 1.972877
v 1.426316 0.513302 2.827620
v 1.426316 0.513302 3.680403
v 0.573532 0.513302 -3.994648
v 0.573532 0.513302 -3.141864
v 0.573532 0.513302 -2.289081
v 0.573532 0.513302 -1.436297
v 0.591385 0.603656 -0.524980
v 0.573532 0.513302 0.269270
v 0.573532 0.513302 1.122053
v 0.573532 0.513302 1.974837
v 0.573532 0.513302 2.827620
v 0.573532 0.513302 3.680403
v -0.279252 0.513302 -3.994648
v -0.279252 0.513302 -3.141864
v -0.279252 0.513302 -2.289081
v -0.279252 0.513302 -1.436297
v -0.279252 0.513302 -0.583514
v -0.279252 0.513302 0.269270
v -0.279252 0.513302 1.122053
v -0.279252 0.513302 1.974837
v -0.279252 0.513302 2.827620
v -0.279251 0.513302 3.680403
v -1.132035 0.513302 -3.994648
v -1.132035 0.513302 -3.141864
v -1.132035 0.513302 -2.289081
v -1.132035 0.513302 -1.436297
v -1.132035 0.513302 -0.583514
v -1.132035 0.513302 0.269270
v -1.132035 0.513302 1.122053
v -1.132035 0.513302 1.974837
v -1.132035 0.513302 2.827620
v -1.132035 0.513302 3.680403
v -1.984818 0.513302 -3.994648
v -1.984818 0.513302 -3.141864
v -1.984818 0.513302 -2.289081
v -1.984818 0.513302 -1.436297
v -1.984818 0.513302 -0.583514
v -1.984818 0.513302 0.269270
v -1.984818 0.513302 1.122053
v -1.984818 0.513302 1.974837
v -1.984818 0.513302 2.827620
v -1.984818 0.513302 3.680403
v -2.837602 0.513302 -3.994648
v -2.837602 0.513302 -3.141864
v -2.837602 0.513302 -2.289081
v -2.837602 0.513302 -1.436297
v -2.837602 0.513302 -0.583514
v -2.837602 0.513302 0.269270
v -2.837602 0.513302 1.122053
v -2.837602 0.513302 1.974837
v -2.837602 0.513302 2.827620
v -2.837602 0.513302 3.680403
vn 0.0000 -1.0000 0.0000
vn 0.0000 -0.9851 -0.1719
vn -0.0006 -1.0000 0.0000
vn -0.2225 -0.9701 0.0964
vn -0.3976 -0.9135 -0.0858
vn -0.3945 -0.9187 0.0200
vn -0.1800 -0.9715 -0.1539
vn -0.1856 -0.9826 0.0000
vn 0.0000 -0.9708 0.2398
vn -0.1566 -0.9752 -0.1566
vn -0.0630 -0.9958 0.0664
vn 0.6239 0.3750 0.6857
vn 0.3065 -0.8904 -0.3366
vn 0.0667 -0.9955 0.0667
vn 0.1778 -0.9794 0.0959
vn 0.0000 -0.9973 -0.0728
vn 0.1951 -0.9612 0.1951
vn 0.1821 -0.9686 -0.1695
vn 0.0032 -1.0000 -0.0072
vn 0.0032 -1.0000 -0.0032
vn 0.0000 -0.9951 0.0987
vn 0.0000 -0.9936 -0.1130
vn 0.1817 -0.9834 0.0000
vn -0.1045 -0.9890 0.1045
vn -0.1104 -0.9878 -0.1099
vn -0.0274 -0.9993 0.0268
vn -0.0278 -0.9992 -0.0277
vn -0.1486 -0.9777 0.1485
vn -0.2117 -0.9541 0.2117
vn -0.1551 -0.9873 -0.0347
vn 0.1980 -0.9771 0.0785
vn 0.1673 -0.8646 0.4738
vn -0.0632 -0.9960 0.0632
vn 0.1844 -0.9654 -0.1844
vn 0.1750 -0.9646 0.1973
vn 0.0716 -0.9974 -0.0080
vn 0.0717 -0.9974 -0.0030
vn 0.0707 -0.9975 0.0000
vn 0.0104 -0.9999 0.0000
vn 0.1032 -0.9947 0.0000
vn -0.4163 -0.9090 -0.0201
vn -0.4065 -0.9063 0.1158
vn 0.7846 -0.5013 0.3650
vn 0.5225 -0.4080 -0.7487
vn -0.3400 -0.9401 -0.0241
vn -0.9123 0.4089 0.0241
vn -0.8652 0.4881 0.1152
vn -0.8767 0.3201 -0.3590
vn 0.5320 0.5179 0.6699
vn 0.5084 -0.6950 0.5084
vn 0.0538 -0.1055 -0.9930
vn 0.1988 -0.9568 0.2121
vn 0.5525 -0.4239 -0.7177
vn 0.4090 -0.8012 0.4368
vn 0.3958 -0.6884 0.6078
vn 0.6724 -0.3964 -0.6251
vn 0.0355 -0.6461 0.7624
vn 0.0728 -0.1318 -0.9886
vn -0.5571 -0.7569 0.3418
vn -0.6626 -0.4870 -0.5690
vn 0.4557 -0.7758 -0.4364
vn 0.4899 -0.8713 -0.0280
vn 0.9287 -0.3499 -0.1231
vn 0.5861 -0.7206 0.3705
vn -0.4963 -0.7152 0.4922
vn -0.3866 -0.8390 0.3829
vn -0.6426 -0.2742 -0.7155
vn -0.5013 -0.6686 0.5492
vn 0.0158 0.4301 -0.9026
vn -0.0166 -0.4415 0.8971
vn -0.6991 -0.3677 -0.6132
vn -0.6390 -0.3358 -0.6920
vn 0.9636 -0.2640 0.0427
vn 0.8950 -0.4421 -0.0590
vn -0.5310 -0.5963 0.6020
vn -0.6859 -0.2191 -0.6939
vn 0.8406 -0.5416 0.0097
vn 0.9324 -0.3611 0.0175
vn 0.9365 -0.3501 -0.0188
vn 0.3065 -0.4897 0.8163
vn 0.6098 -0.1142 -0.7842
vn 0.7144 -0.4389 0.5450
vn 0.5619 -0.2202 -0.7973
vn 0.9202 -0.3913 -0.0103
vn 0.6780 -0.2841 -0.6780
vn -0.6173 -0.4985 0.6087
vn -0.6602 -0.2033 -0.7231
vn -0.6272 -0.3842 0.6775
vn -0.6569 -0.2281 -0.7187
vn -0.7479 -0.2764 0.6035
vn -0.6854 -0.2456 -0.6854
usemtl Material.001
s off
f 34//1 144//1 35//1
f 54//1 5//1 3//1
f 64//1 54//1 44//1
f 64//1 43//1 42//1
f 74//2 42//2 41//2
f 94//1 84//1 41//1
f 104//1 94//1 40//1
f 114//1 104//1 39//1
f 124//1 114//1 38//1
f 134//1 124//1 37//1
f 144//1 134//1 36//1
f 15//1 1//1 14//1
f 45//1 14//1 13//1
f 46//1 13//1 12//1
f 12//3 11//3 48//3
f 48//3 11//3 10//3
f 10//1 9//1 50//1
f 50//1 9//1 8//1
f 8//1 7//1 52//1
f 52//1 7//1 6//1
f 53//1 6//1 5//1
f 16//1 15//1 45//1
f 55//1 45//1 46//1
f 56//4 46//4 47//4
f 47//5 48//5 58//5
f 58//6 48//6 49//6
f 51//7 52//7 62//7
f 62//8 52//8 53//8
f 53//1 54//1 64//1
f 17//1 16//1 55//1
f 65//9 55//9 56//9
f 63//10 64//10 74//10
f 18//1 17//1 65//1
f 75//11 65//11 66//11
f 66//12 67//12 77//12
f 77//13 67//13 68//13
f 18//14 75//14 85//14
f 82//15 83//15 93//15
f 83//2 84//2 94//2
f 19//1 85//1 95//1
f 85//14 86//14 96//14
f 86//16 87//16 97//16
f 87//17 88//17 98//17
f 100//18 90//18 91//18
f 91//19 92//19 102//19
f 102//20 92//20 93//20
f 93//1 94//1 104//1
f 20//1 95//1 105//1
f 105//1 95//1 96//1
f 106//1 96//1 97//1
f 107//1 97//1 98//1
f 108//21 98//21 99//21
f 99//22 100//22 110//22
f 110//1 100//1 101//1
f 111//1 101//1 102//1
f 102//1 103//1 113//1
f 113//1 103//1 104//1
f 22//1 21//1 105//1
f 115//1 105//1 106//1
f 116//1 106//1 107//1
f 117//1 107//1 108//1
f 118//1 108//1 109//1
f 119//1 109//1 110//1
f 120//1 110//1 111//1
f 121//1 111//1 112//1
f 122//1 112//1 113//1
f 113//1 114//1 124//1
f 23//1 22//1 115//1
f 125//1 115//1 116//1
f 126//1 116//1 117//1
f 127//1 117//1 118//1
f 128//1 118//1 119//1
f 129//1 119//1 120//1
f 130//1 120//1 121//1
f 131//1 121//1 122//1
f 24//1 23//1 125//1
f 135//1 125//1 126//1
f 136//1 126//1 127//1
f 137//1 127//1 128//1
f 138//1 128//1 129//1
f 139//1 129//1 130//1
f 140//1 130//1 131//1
f 2//1 24//1 135//1
f 25//1 135//1 136//1
f 26//1 136//1 137//1
f 27//1 137//1 138//1
f 28//1 138//1 139//1
f 29//1 139//1 140//1
f 30//1 140//1 141//1
f 31//1 141//1 142//1
f 32//1 142//1 143//1
f 33//1 143//1 144//1
f 34//1 35//1 4//1
f 54//1 3//1 44//1
f 64//1 44//1 43//1
f 64//10 42//10 74//10
f 74//23 41//23 84//23
f 94//1 41//1 40//1
f 104//1 40//1 39//1
f 114//1 39//1 38//1
f 124//1 38//1 37//1
f 134//1 37//1 36//1
f 144//1 36//1 35//1
f 15//1 14//1 45//1
f 45//1 13//1 46//1
f 46//24 12//24 47//24
f 12//25 48//25 47//25
f 48//26 10//26 49//26
f 10//27 50//27 49//27
f 50//28 8//28 51//28
f 8//10 52//10 51//10
f 52//1 6//1 53//1
f 53//1 5//1 54//1
f 16//1 45//1 55//1
f 55//29 46//29 56//29
f 62//30 53//30 63//30
f 53//10 64//10 63//10
f 17//1 55//1 65//1
f 65//31 56//31 66//31
f 56//32 67//32 66//32
f 18//33 65//33 75//33
f 83//34 74//34 84//34
f 18//1 85//1 19//1
f 75//14 86//14 85//14
f 77//35 88//35 87//35
f 91//36 82//36 92//36
f 82//37 93//37 92//37
f 83//23 94//23 93//23
f 19//1 95//1 20//1
f 85//1 96//1 95//1
f 86//38 97//38 96//38
f 87//1 98//1 97//1
f 100//39 91//39 101//39
f 91//39 102//39 101//39
f 102//1 93//1 103//1
f 93//1 104//1 103//1
f 20//1 105//1 21//1
f 105//1 96//1 106//1
f 106//1 97//1 107//1
f 107//1 98//1 108//1
f 108//40 99//40 109//40
f 99//40 110//40 109//40
f 110//1 101//1 111//1
f 111//1 102//1 112//1
f 102//1 113//1 112//1
f 113//1 104//1 114//1
f 22//1 105//1 115//1
f 115//1 106//1 116//1
f 116//1 107//1 117//1
f 117//1 108//1 118//1
f 118//1 109//1 119//1
f 119//1 110//1 120//1
f 120//1 111//1 121//1
f 121//1 112//1 122//1
f 122//1 113//1 123//1
f 113//1 124//1 123//1
f 23//1 115//1 125//1
f 125//1 116//1 126//1
f 126//1 117//1 127//1
f 127//1 118//1 128//1
f 128//1 119//1 129//1
f 129//1 120//1 130//1
f 130//1 121//1 131//1
f 24//1 125//1 135//1
f 135//1 126//1 136//1
f 136//1 127//1 137//1
f 137//1 128//1 138//1
f 138//1 129//1 139//1
f 139//1 130//1 140//1
f 140//1 131//1 141//1
f 143//1 134//1 144//1
f 2//1 135//1 25//1
f 25//1 136//1 26//1
f 26//1 137//1 27//1
f 27//1 138//1 28//1
f 28//1 139//1 29//1
f 29//1 140//1 30//1
f 30//1 141//1 31//1
f 31//1 142//1 32//1
f 32//1 143//1 33//1
f 33//1 144//1 34//1
usemtl Material.002
f 49//41 50//41 60//41
f 60//42 50//42 51//42
f 58//43 59//43 69//43
f 59//44 60//44 70//44
f 72//45 62//45 63//45
f 78//46 68//46 69//46
f 69//47 70//47 80//47
f 80//48 70//48 71//48
f 71//49 72//49 82//49
f 75//50 76//50 86//50
f 76//51 77//51 87//51
f 77//52 78//52 88//52
f 88//53 78//53 79//53
f 79//54 80//54 90//54
f 90//55 80//55 81//55
f 91//56 81//56 82//56
f 98//57 88//57 89//57
f 89//58 90//58 100//58
f 58//59 49//59 59//59
f 49//60 60//60 59//60
f 67//61 58//61 68//61
f 58//62 69//62 68//62
f 59//63 70//63 69//63
f 60//64 71//64 70//64
f 71//65 62//65 72//65
f 75//66 66//66 76//66
f 66//67 77//67 76//67
f 77//68 68//68 78//68
f 78//69 69//69 79//69
f 69//70 80//70 79//70
f 80//71 71//71 81//71
f 71//72 82//72 81//72
f 72//73 83//73 82//73
f 76//74 87//74 86//74
f 88//75 79//75 89//75
f 79//76 90//76 89//76
f 90//77 81//77 91//77
f 98//78 89//78 99//78
f 89//79 100//79 99//79
usemtl Material.003
f 56//80 57//80 67//80
f 67//81 57//81 58//81
f 60//82 61//82 71//82
f 71//83 61//83 62//83
f 72//84 73//84 83//84
f 83//85 73//85 74//85
f 56//86 47//86 57//86
f 47//87 58//87 57//87
f 60//88 51//88 61//88
f 51//89 62//89 61//89
f 72//90 63//90 73//90
f 63//91 74//91 73//91
usemtl Material.004
f 132//1 122//1 123//1
f 133//1 123//1 124//1
f 141//1 131//1 132//1
f 142//1 132//1 133//1
f 143//1 133//1 134//1
f 131//1 122//1 132//1
f 132//1 123//1 133//1
f 133//1 124//1 134//1
f 141//1 132//1 142//1
f 142//1 133//1 143//1
